# xmcd
#
# Track frame offsets:
#	150
#	27238
#	50106
#	95868
#	131179
#	162481
#	195592
#	210379
#	256440
#	273888
#	331594
#
# Disc length: 4596 seconds
#
# Revision: 1
# Processed by: cddbd v1.5.1PL0 Copyright (c) Steve Scherf et al.
# Submitted via: CDex 1.50Beta5
#
DISCID=a111f20b
DTITLE=朴路美 - 王子さまLv1
DYEAR=2002
DGENRE=Game
TTITLE0=予感
TTITLE1=冒険者デビュー!
TTITLE2=白凰登場〜石壁のダンジョン〜
TTITLE3=ナタブーム盗賊団参上!!〜草原のダンジョン〜
TTITLE4=伝説の滝
TTITLE5=精霊の依頼〜温泉ダンジョン〜
TTITLE6=不穏な動き
TTITLE7=隠された真実〜炎のダンジョン〜
TTITLE8=クーデター
TTITLE9=最後のダンジョン
TTITLE10=冒険の終わりに
EXTD=
EXTT0=
EXTT1=
EXTT2=
EXTT3=
EXTT4=
EXTT5=
EXTT6=
EXTT7=
EXTT8=
EXTT9=
EXTT10=
PLAYORDER=
